<svg width="5" height="18" viewBox="0 0 5 18" fill="none" xmlns="http://www.w3.org/2000/svg">
<path d="M4.4834 9C4.4834 9.43265 4.3551 9.85558 4.11474 10.2153C3.87437 10.575 3.53273 10.8554 3.13302 11.021C2.73331 11.1866 2.29347 11.2299 1.86914 11.1455C1.44481 11.0611 1.05503 10.8527 0.749104 10.5468C0.443176 10.2409 0.234837 9.85109 0.150432 9.42676C0.0660264 9.00243 0.109346 8.56259 0.274913 8.16288C0.44048 7.76317 0.720857 7.42153 1.08059 7.18116C1.44032 6.9408 1.86325 6.8125 2.2959 6.8125C2.87606 6.8125 3.43246 7.04297 3.8427 7.45321C4.25293 7.86344 4.4834 8.41984 4.4834 9ZM2.2959 4.9375C2.72855 4.9375 3.15148 4.80921 3.51121 4.56884C3.87094 4.32848 4.15132 3.98683 4.31689 3.58712C4.48245 3.18741 4.52577 2.74757 4.44137 2.32324C4.35696 1.89891 4.14862 1.50913 3.8427 1.2032C3.53677 0.897278 3.14699 0.688938 2.72266 0.604533C2.29833 0.520128 1.85849 0.563448 1.45878 0.729015C1.05907 0.894581 0.717425 1.17496 0.47706 1.53469C0.236694 1.89442 0.1084 2.31735 0.1084 2.75C0.1084 3.33016 0.338868 3.88656 0.749104 4.2968C1.15934 4.70703 1.71574 4.9375 2.2959 4.9375ZM2.2959 13.0625C1.86325 13.0625 1.44032 13.1908 1.08059 13.4312C0.720857 13.6715 0.44048 14.0132 0.274913 14.4129C0.109346 14.8126 0.0660264 15.2524 0.150432 15.6768C0.234837 16.1011 0.443176 16.4909 0.749104 16.7968C1.05503 17.1027 1.44481 17.3111 1.86914 17.3955C2.29347 17.4799 2.73331 17.4366 3.13302 17.271C3.53273 17.1054 3.87437 16.825 4.11474 16.4653C4.3551 16.1056 4.4834 15.6826 4.4834 15.25C4.4834 14.6698 4.25293 14.1134 3.8427 13.7032C3.43246 13.293 2.87606 13.0625 2.2959 13.0625Z" fill="#81818D" style="fill:#81818D;fill:color(display-p3 0.5059 0.5059 0.5529);fill-opacity:1;"/>
</svg>
