<svg width="18" height="17" viewBox="0 0 18 17" fill="none" xmlns="http://www.w3.org/2000/svg">
<path d="M1.25098 8.50004C1.25098 6.50689 2.04275 4.59538 3.45212 3.18601C4.86149 1.77664 6.773 0.984863 8.76615 0.984863C10.7593 0.984863 12.6708 1.77664 14.0802 3.18601C15.4896 4.59538 16.2813 6.50689 16.2813 8.50004V13.2816C16.2813 14.0782 16.2813 14.4746 16.163 14.7931C16.0688 15.0454 15.9216 15.2746 15.7311 15.465C15.5407 15.6555 15.3115 15.8027 15.0592 15.8969C14.7407 16.0152 14.3434 16.0152 13.5477 16.0152H8.76615C6.773 16.0152 4.86149 15.2234 3.45212 13.8141C2.04275 12.4047 1.25098 10.4932 1.25098 8.50004Z" stroke="#81818D" style="stroke:#81818D;stroke:color(display-p3 0.5059 0.5059 0.5529);stroke-opacity:1;" stroke-width="1.66667"/>
<path d="M5.94775 7.56067H11.5841M8.76595 11.3183H11.5841" stroke="#81818D" style="stroke:#81818D;stroke:color(display-p3 0.5059 0.5059 0.5529);stroke-opacity:1;" stroke-width="1.66667" stroke-linecap="round" stroke-linejoin="round"/>
</svg>
